Coordinates
version=1
nRows=26
nColumns=24
inDegrees=yes

Units are S.I. units (second, meters, Newtons, ...)
Angles are in degrees.

endheader
time	pelvis_tilt	pelvis_list	pelvis_rotation	pelvis_tx	pelvis_ty	pelvis_tz	hip_flexion_r	hip_adduction_r	hip_rotation_r	knee_angle_r	ankle_angle_r	subtalar_angle_r	mtp_angle_r	hip_flexion_l	hip_adduction_l	hip_rotation_l	knee_angle_l	ankle_angle_l	subtalar_angle_l	mtp_angle_l	lumbar_extension	lumbar_bending	lumbar_rotation
      3.34000000	     63.85864772	      3.41048778	     -1.46953358	      0.55968725	      1.05516995	     -0.30934781	      4.39037939	    -11.73716081	      5.55197447	    -62.21333145	    -17.81047033	     -1.75037764	      0.00000000	      7.12167409	     -8.42681621	      9.84140701	      3.37962410	    -21.44250002	     12.69727510	      0.00000000	      0.00000000	      0.00000000	      0.00000000
      3.35000000	     63.84714882	      3.41897021	     -1.47075923	      0.55969331	      1.05516909	     -0.30935327	      4.39987190	    -11.74706242	      5.55773169	    -62.20478128	    -17.82850300	     -1.75566132	      0.00000000	      7.11269360	     -8.42094899	      9.93555005	      3.40378210	    -21.57010347	     12.66970367	      0.00000000	      0.00000000	      0.00000000	      0.00000000
      3.36000000	     63.83419262	      3.43381850	     -1.46862748	      0.55963578	      1.05518708	     -0.30935252	      4.41218606	    -11.76138802	      5.55956643	    -62.19487852	    -17.85046123	     -1.75915600	      0.00000000	      7.10568368	     -8.41090617	     10.06962192	      3.40496657	    -21.66829312	     12.60522743	      0.00000000	      0.00000000	      0.00000000	      0.00000000
      3.37000000	     63.82108139	      3.45279651	     -1.46431208	      0.55953103	      1.05521944	     -0.30935378	      4.42545197	    -11.77950989	      5.55705108	    -62.18412371	    -17.87240289	     -1.75875612	      0.00000000	      7.09798124	     -8.39405286	     10.24590390	      3.36193077	    -21.66299775	     12.49957871	      0.00000000	      0.00000000	      0.00000000	      0.00000000
      3.38000000	     63.80768016	      3.47052528	     -1.45876367	      0.55947226	      1.05522466	     -0.30935860	      4.43774657	    -11.80065818	      5.55039178	    -62.17286805	    -17.89138813	     -1.75275906	      0.00000000	      7.08387121	     -8.36536513	     10.46839542	      3.25500901	    -21.48400389	     12.35594243	      0.00000000	      0.00000000	      0.00000000	      0.00000000
      3.39000000	     63.79372746	      3.48377784	     -1.45288174	      0.55948875	      1.05520334	     -0.30938472	      4.44742481	    -11.82457076	      5.54088536	    -62.16055068	    -17.90620574	     -1.74030319	      0.00000000	      7.05645848	     -8.32130917	     10.74129701	      3.06836810	    -21.07743086	     12.18660937	      0.00000000	      0.00000000	      0.00000000	      0.00000000
      3.40000000	     63.77943369	      3.49437595	     -1.44784325	      0.55949321	      1.05522595	     -0.30948020	      4.45334262	    -11.85178145	      5.53119607	    -62.14532561	    -17.91767982	     -1.72173740	      0.00000000	      7.00867950	     -8.26160324	     11.06658870	      2.79080500	    -20.41535838	     12.01296757	      0.00000000	      0.00000000	      0.00000000	      0.00000000
      3.41000000	     63.76514390	      3.50475214	     -1.44520287	      0.55947735	      1.05530871	     -0.30965060	      4.45475733	    -11.88352400	      5.52498535	    -62.12454177	    -17.92847367	     -1.69880461	      0.00000000	      6.93312866	     -8.18500721	     11.44046864	      2.41509470	    -19.49939153	     11.86292913	      0.00000000	      0.00000000	      0.00000000	      0.00000000
      3.42000000	     63.75169032	      3.51790613	     -1.44672079	      0.55950961	      1.05538822	     -0.30983021	      4.45093945	    -11.92168650	      5.52582546	    -62.09574866	    -17.94245356	     -1.67453019	      0.00000000	      6.82349288	     -8.08934847	     11.84982476	      1.93650668	    -18.35840140	     11.76571094	      0.00000000	      0.00000000	      0.00000000	      0.00000000
      3.43000000	     63.74135762	      3.54062161	     -1.45398161	      0.55954568	      1.05544156	     -0.30995821	      4.44088882	    -11.96869516	      5.53560751	    -62.05772940	    -17.96376458	     -1.65274543	      0.00000000	      6.67715341	     -7.97512558	     12.26982267	      1.35123149	    -17.04142000	     11.74484145	      0.00000000	      0.00000000	      0.00000000	      0.00000000
      3.44000000	     63.73755317	      3.57845410	     -1.46776116	      0.55949149	      1.05551412	     -0.31003232	      4.42343235	    -12.02668243	      5.55306355	    -62.01136507	    -17.99582105	     -1.63729668	      0.00000000	      6.49553614	     -7.84242149	     12.66334824	      0.65471724	    -15.60722054	     11.81128581	      0.00000000	      0.00000000	      0.00000000	      0.00000000
      3.45000000	     63.74288799	      3.62984450	     -1.48732496	      0.55934905	      1.05565230	     -0.31010130	      4.39763293	    -12.09602009	      5.57338841	    -61.95988464	    -18.04043952	     -1.63114805	      0.00000000	      6.28191437	     -7.68642898	     12.98371566	     -0.16066832	    -14.11485314	     11.95922138	      0.00000000	      0.00000000	      0.00000000	      0.00000000
      3.46000000	     63.75762942	      3.68729342	     -1.51035191	      0.55919449	      1.05584776	     -0.31020688	      4.36321457	    -12.17450830	      5.58978550	    -61.90769316	    -18.09733742	     -1.63567593	      0.00000000	      6.03931827	     -7.49870760	     13.18142130	     -1.10757495	    -12.61913617	     12.16648386	      0.00000000	      0.00000000	      0.00000000	      0.00000000
      3.47000000	     63.78017263	      3.74225856	     -1.53390270	      0.55909782	      1.05604132	     -0.31032478	      4.32047922	    -12.25825843	      5.59679276	    -61.85787345	    -18.16415942	     -1.65041231	      0.00000000	      5.77088145	     -7.27250808	     13.21356120	     -2.20321985	    -11.17158795	     12.39999515	      0.00000000	      0.00000000	      0.00000000	      0.00000000
      3.48000000	     63.80912430	      3.79094239	     -1.55601211	      0.55906647	      1.05620932	     -0.31040943	      4.26944780	    -12.34332626	      5.59365096	    -61.80998925	    -18.23705312	     -1.67330186	      0.00000000	      5.48262578	     -7.00938602	     13.05257443	     -3.46601733	     -9.82370735	     12.62441946	      0.00000000	      0.00000000	      0.00000000	      0.00000000
      3.49000000	     63.84407966	      3.83588769	     -1.57664156	      0.55904644	      1.05639875	     -0.31047061	      4.20893313	    -12.42630045	      5.58532536	    -61.76005554	    -18.31165150	     -1.70130731	      0.00000000	      5.18476387	     -6.72098265	     12.69060242	     -4.91065476	     -8.62765269	     12.81108260	      0.00000000	      0.00000000	      0.00000000	      0.00000000
      3.50000000	     63.88376555	      3.88017933	     -1.59725681	      0.55899548	      1.05662900	     -0.31055260	      4.13702806	    -12.50393175	      5.58026555	    -61.70298404	    -18.38418275	     -1.73113137	      0.00000000	      4.88831378	     -6.42285040	     12.13820365	     -6.54402478	     -7.63169663	     12.94445114	      0.00000000	      0.00000000	      0.00000000	      0.00000000
      3.51000000	     63.92529800	      3.92206567	     -1.61995263	      0.55892701	      1.05685754	     -0.31066419	      4.05367686	    -12.57323087	      5.58621931	    -61.63578966	    -18.45232130	     -1.75991153	      0.00000000	      4.60015999	     -6.12835211	     11.41945747	     -8.36358046	     -6.87265352	     13.02473773	      0.00000000	      0.00000000	      0.00000000	      0.00000000
      3.52000000	     63.96603939	      3.95622071	     -1.64722855	      0.55888083	      1.05706307	     -0.31076334	      3.96259738	    -12.63181245	      5.60675207	    -61.55923471	    -18.51539747	     -1.78580651	      0.00000000	      4.32116053	     -5.84826463	     10.56615293	    -10.35794641	     -6.36931588	     13.06659685	      0.00000000	      0.00000000	      0.00000000	      0.00000000
      3.53000000	     64.00491268	      3.97843360	     -1.68224626	      0.55887983	      1.05727108	     -0.31081244	      3.86947836	    -12.67770513	      5.64040983	    -61.47695868	    -18.57376909	     -1.80839884	      0.00000000	      4.04775794	     -5.59300266	      9.61280074	    -12.50938805	     -6.11950698	     13.09490922	      0.00000000	      0.00000000	      0.00000000	      0.00000000
      3.54000000	     64.04214718	      3.98794623	     -1.72820493	      0.55891832	      1.05750458	     -0.31082072	      3.77846675	    -12.70966932	      5.68213186	    -61.39307186	    -18.62750056	     -1.82885831	      0.00000000	      3.77443921	     -5.37349186	      8.59334232	    -14.79842356	     -6.10160779	     13.13917915	      0.00000000	      0.00000000	      0.00000000	      0.00000000
      3.55000000	     64.07899493	      3.98534952	     -1.78644417	      0.55897934	      1.05775530	     -0.31081555	      3.69020783	    -12.72826849	      5.72516397	    -61.31017318	    -18.67498291	     -1.84980677	      0.00000000	      3.49564792	     -5.19898023	      7.53956152	    -17.20965695	     -6.28023455	     13.22809166	      0.00000000	      0.00000000	      0.00000000	      0.00000000
      3.56000000	     64.11838607	      3.96980870	     -1.85472314	      0.55905346	      1.05800215	     -0.31080185	      3.60160119	    -12.73621243	      5.76225150	    -61.22930156	    -18.71243127	     -1.87481481	      0.00000000	      3.20835651	     -5.07376490	      6.48062273	    -19.73620304	     -6.61490389	     13.38540103	      0.00000000	      0.00000000	      0.00000000	      0.00000000
      3.57000000	     64.16490792	      3.93923350	     -1.92646738	      0.55915041	      1.05823314	     -0.31077087	      3.50644811	    -12.73734864	      5.78635407	    -61.15178066	    -18.73480472	     -1.90759914	      0.00000000	      2.91476037	     -4.99585238	      5.44280719	    -22.38097476	     -7.06971108	     13.62777848	      0.00000000	      0.00000000	      0.00000000	      0.00000000
      3.58000000	     64.22230918	      3.89323215	     -1.99098775	      0.55930158	      1.05844409	     -0.31073751	      3.39722356	    -12.73485972	      5.79201739	    -61.08132304	    -18.73786178	     -1.95112102	      0.00000000	      2.62280746	     -4.95853740	      4.44894503	    -25.15480437	     -7.62140001	     13.96475096	      0.00000000	      0.00000000	      0.00000000	      0.00000000
      3.59000000	     64.29025486	      3.83789541	     -2.03599102	      0.55953222	      1.05863824	     -0.31074971	      3.26863888	    -12.72911142	      5.77763355	    -61.02428761	    -18.72048876	     -2.00668789	      0.00000000	      2.34457948	     -4.95500030	      3.51800542	    -28.07195600	     -8.26315440	     14.40048251	      0.00000000	      0.00000000	      0.00000000	      0.00000000
